<svg width="30" height="30" viewBox="0 0 30 30" fill="none" xmlns="http://www.w3.org/2000/svg">
<path d="M23.4852 21.1742C25.7357 18.9576 27 15.9519 27 12.8179C27 9.6839 25.7357 6.67819 23.4852 4.46155C22.3712 3.36415 21.0484 2.49361 19.5925 1.89966C18.1365 1.30571 16.576 1 15 1C13.424 1 11.8635 1.30571 10.4075 1.89966C8.9516 2.49361 7.62883 3.36415 6.51481 4.46155C4.26425 6.67819 3 9.6839 3 12.8179C3 15.9519 4.26425 18.9576 6.51481 21.1742L9.12208 23.7037L12.6241 27.0533L12.8521 27.2524C14.1806 28.3122 16.1262 28.2447 17.3776 27.0533L21.5516 23.054L23.4852 21.1742ZM15 17.8752C13.6361 17.8752 12.3281 17.3419 11.3637 16.3925C10.3993 15.4431 9.85746 14.1554 9.85746 12.8128C9.85746 11.4702 10.3993 10.1825 11.3637 9.23316C12.3281 8.28378 13.6361 7.75042 15 7.75042C16.3639 7.75042 17.6719 8.28378 18.6363 9.23316C19.6007 10.1825 20.1425 11.4702 20.1425 12.8128C20.1425 14.1554 19.6007 15.4431 18.6363 16.3925C17.6719 17.3419 16.3639 17.8752 15 17.8752Z" fill="#FF0000"/>
</svg>
